<svg width="18" height="18" viewBox="0 0 18 18" fill="none" xmlns="http://www.w3.org/2000/svg">
<path d="M12.9931 4.41503C12.9964 4.43492 12.9986 4.45482 12.9997 4.47471C13.0666 5.86868 13.5186 9.68594 14.7907 10.5943L12.9931 4.41503ZM12.9931 4.41503C12.6582 2.43651 10.9789 1 9 1C7.02114 1 5.34178 2.43596 5.00691 4.41503H12.9931ZM16.7637 14.5179C16.7636 14.5179 16.7636 14.5179 16.7636 14.5179L16.7397 14.5618L16.7637 14.5179ZM15.0343 11.1316C15.0343 11.1315 15.0344 11.1315 15.0344 11.1315L14.9858 11.1197L15.0343 11.1316ZM12.3046 7.3842C12.5723 8.78248 12.943 9.85972 13.4137 10.6006L11.4183 10.8851L11.4183 10.8851C10.8618 10.9647 10.4514 11.3128 10.4514 11.7506C10.4514 11.9679 10.5528 12.1668 10.6916 12.3316C10.8306 12.4967 11.0104 12.6316 11.1759 12.7222L11.1871 12.7283H11.1877L15.9514 15.3263L15.9504 15.9505H2.05076V15.3269L6.82459 12.7227L6.82461 12.7227C6.99038 12.6322 7.17058 12.4973 7.30995 12.3322C7.44913 12.1672 7.55079 11.9682 7.55079 11.7506C7.55079 11.3122 7.1398 10.9647 6.58338 10.8851L6.58335 10.8851L4.58855 10.6006C5.05918 9.85976 5.42992 8.78302 5.69758 7.3842C5.96056 6.00948 6.03639 4.78538 6.04859 4.55948C6.30977 3.10238 7.54662 2.04948 9.0011 2.04948C10.4556 2.04948 11.6924 3.10238 11.9536 4.55947C11.9658 4.78537 12.0416 6.00947 12.3046 7.3842ZM11.9905 11.9148L14.5778 11.5454L11.9905 11.9148ZM14.5778 11.5454L14.5708 11.4959L14.5778 11.5454Z" fill="#757B7E" stroke="#757B7E" stroke-width="0.1"/>
</svg>
