<svg width="15" height="16" viewBox="0 0 15 16" fill="none" xmlns="http://www.w3.org/2000/svg">
<path d="M14.2731 0.555583C13.0228 -0.693385 7.22861 0.486196 5.21426 0.966124C4.51965 0.740616 1.99014 0.0583086 0.670389 1.79299C-0.417824 3.19229 -0.030004 6.22798 0.763002 7.78341C0.955082 8.24351 1.28456 8.63322 1.70651 8.89938V10.2177C1.70651 11.7513 2.31635 13.222 3.40188 14.3064C4.48741 15.3908 5.9597 16 7.49487 16C9.03004 16 10.5023 15.3908 11.5879 14.3064C12.6734 13.222 13.2832 11.7513 13.2832 10.2177V6.35519C13.7035 6.09339 14.0643 5.74676 14.3425 5.33751C15.095 4.22732 15.3613 1.64265 14.2731 0.555583ZM12.1256 10.2177C12.1256 11.4446 11.6377 12.6212 10.7693 13.4887C9.90084 14.3562 8.72301 14.8435 7.49487 14.8435C6.26674 14.8435 5.0889 14.3562 4.22048 13.4887C3.35205 12.6212 2.86418 11.4446 2.86418 10.2177V8.90517C3.80768 8.41946 4.53702 6.85247 4.94799 5.77118C8.03512 6.92763 10.4276 7.28613 12.1256 6.84668V10.2177ZM13.3816 4.6899C12.2645 6.34363 9.32979 6.26846 4.81486 4.47596C4.74171 4.44667 4.66334 4.43262 4.58457 4.43465C4.50579 4.43669 4.42826 4.45477 4.35672 4.4878C4.28518 4.52082 4.22115 4.56809 4.16855 4.6267C4.11594 4.68532 4.07587 4.75405 4.05079 4.82867C3.47196 6.56335 2.62107 7.90484 2.31428 7.90484C2.25061 7.90484 1.94383 7.66776 1.63126 6.81777C1.10452 5.39534 0.971384 3.30794 1.63126 2.47529C1.83465 2.24077 2.08903 2.05581 2.37496 1.93455C2.66088 1.81328 2.97077 1.75893 3.28094 1.77564C3.8571 1.78706 4.42772 1.89052 4.97115 2.0821C5.0806 2.11523 5.19742 2.11523 5.30687 2.0821C9.23138 1.20898 12.9475 0.867825 13.4511 1.37666C14.0415 1.96067 13.9084 3.90929 13.3816 4.6899Z" fill="#757B7E"/>
</svg>
