<svg width="768" height="724" viewBox="0 0 768 724" fill="none" xmlns="http://www.w3.org/2000/svg">
<path fill-rule="evenodd" clip-rule="evenodd" d="M36.4774 56.7295H62.2333L95.0477 89.6783C95.8129 89.4269 96.5868 89.2008 97.3681 89.0006H201V86.0006H97.318L63.9699 52.5158H36.4774C35.5244 48.3952 31.8431 45.3184 27.4551 45.3184C22.3474 45.3184 18.1896 49.4904 18.1896 54.6226C18.1896 59.7549 22.3474 63.9269 27.4551 63.9269C31.8431 63.9269 35.5244 60.8469 36.4774 56.7295ZM22.3858 54.6226C22.3858 51.8156 24.6598 49.5321 27.4551 49.5321C30.2504 49.5321 32.5244 51.8156 32.5244 54.6226C32.5244 57.4297 30.2504 59.7132 27.4551 59.7132C24.6598 59.7132 22.3858 57.4297 22.3858 54.6226ZM80.5657 97.0006H194V101.001H78V100.382L64.1643 86.4881H40.3338C39.3808 90.6055 35.6995 93.6855 31.3115 93.6855C26.2038 93.6855 22.046 89.5136 22.046 84.3813C22.046 79.249 26.2006 75.077 31.3115 75.077C35.6995 75.077 39.3808 78.157 40.3338 82.2744H65.901L80.5657 97.0006ZM31.3115 79.2939C28.5162 79.2939 26.2422 81.5775 26.2422 84.3845C26.2422 87.1915 28.5162 89.475 31.3115 89.475C34.1068 89.475 36.3808 87.1915 36.3808 84.3845C36.3808 81.5775 34.1068 79.2939 31.3115 79.2939ZM44.9158 118.95H18.2933C17.3402 123.068 13.659 126.148 9.2709 126.148C4.16324 126.148 0.00546265 121.976 0.00546265 116.843C0.00546265 111.711 4.16003 107.539 9.2709 107.539C13.659 107.539 17.3402 110.619 18.2933 114.737H46.6525L64.4126 126.838C64.3994 126.892 64.3864 126.946 64.3733 127.001H177V131.001H63.5439C63.5295 131.083 63.5152 131.165 63.5011 131.248L63.1274 131.001H63V130.916L44.9158 118.95ZM9.2709 111.753C6.4756 111.753 4.20161 114.036 4.20161 116.843C4.20161 119.65 6.4756 121.934 9.2709 121.934C12.0662 121.934 14.3402 119.65 14.3402 116.843C14.3402 114.036 12.0662 111.753 9.2709 111.753ZM54.1016 91.4072C59.2092 91.4072 63.367 95.5792 63.367 100.711C63.367 102.42 62.9033 104.02 62.1005 105.397L69.4623 113.001H184V117.001H68V116.21C67.866 116.514 67.7342 116.819 67.6048 117.126L59.2156 108.464C57.7476 109.444 55.9886 110.016 54.0984 110.016C48.9907 110.016 44.8329 105.844 44.8329 100.711C44.8329 95.5792 48.9875 91.4072 54.0984 91.4072H54.1016ZM54.1016 105.799C56.8969 105.799 59.1709 103.515 59.1709 100.708C59.1709 97.9012 56.8969 95.6177 54.1016 95.6177C51.3063 95.6177 49.0323 97.9012 49.0323 100.708C49.0323 103.515 51.3063 105.799 54.1016 105.799Z" fill="#04394D"/>
<path fill-rule="evenodd" clip-rule="evenodd" d="M9.26599 160.038C13.654 160.038 17.3353 163.118 18.2884 167.235H44.9109L63 155.266V155H63.4017L63.4962 154.938L63.507 155H168V160H63.4496L46.6476 171.449H18.2884C17.3353 175.566 13.654 178.646 9.26599 178.646C4.15831 178.646 0.000534058 174.474 0.000534058 169.342C0.000534058 164.21 4.15512 160.038 9.26599 160.038ZM9.26599 174.429C12.0613 174.429 14.3353 172.146 14.3353 169.339C14.3353 166.532 12.0613 164.248 9.26599 164.248C6.47067 164.248 4.1967 166.532 4.1967 169.339C4.1967 172.146 6.47067 174.429 9.26599 174.429ZM63.3666 185.478C63.3666 183.769 62.9028 182.17 62.1001 180.792H62.1033L69.5105 173.142C69.4866 173.095 69.463 173.048 69.4398 173H166V169H68.0103C67.9642 168.879 67.9168 168.761 67.8681 168.645L59.2184 177.725C57.7504 176.745 55.9913 176.173 54.1012 176.173C48.9903 176.173 44.8357 180.345 44.8357 185.478C44.8357 190.61 48.9903 194.782 54.1012 194.782C59.212 194.782 63.3666 190.607 63.3666 185.478ZM49.0319 185.478C49.0319 182.671 51.3059 180.387 54.1012 180.387C56.8965 180.387 59.1704 182.671 59.1704 185.478C59.1704 188.285 56.8965 190.568 54.1012 190.568C51.3059 190.568 49.0319 188.285 49.0319 185.478ZM65.8922 203.908L80.738 189H163V186H78.6579C78.515 185.853 78.3727 185.705 78.2312 185.556L64.1523 199.694H40.3219C39.3688 195.577 35.6875 192.497 31.2995 192.497C26.1886 192.497 22.0341 196.669 22.0341 201.801C22.0341 206.933 26.1918 211.105 31.2995 211.105C35.6875 211.105 39.3688 208.025 40.3219 203.908H65.8922ZM26.2302 201.804C26.2302 198.997 28.5042 196.714 31.2995 196.714C34.0948 196.714 36.3688 198.997 36.3688 201.804C36.3688 204.611 34.0948 206.895 31.2995 206.895C28.5042 206.895 26.2302 204.611 26.2302 201.804ZM36.4767 233.669H63.9692L97.4972 200H162V196H95V196.55L62.2326 229.455H36.4767C35.5236 225.337 31.8424 222.257 27.4543 222.257C22.3435 222.257 18.1889 226.429 18.1889 231.562C18.1889 236.694 22.3467 240.866 27.4543 240.866C31.8424 240.866 35.5236 237.786 36.4767 233.669ZM22.3851 231.562C22.3851 228.755 24.659 226.471 27.4543 226.471C30.2496 226.471 32.5236 228.755 32.5236 231.562C32.5236 234.369 30.2496 236.652 27.4543 236.652C24.659 236.652 22.3851 234.369 22.3851 231.562Z" fill="#04394D"/>
<path d="M87.7721 247.116H62.0163C61.0632 242.999 57.382 239.919 52.9939 239.919C47.8863 239.919 43.7285 244.091 43.7285 249.223C43.7285 254.355 47.8863 258.527 52.9939 258.527C57.382 258.527 61.0632 255.451 62.0163 251.33H89.5088L122.5 217C120.894 216.705 121.544 214.507 120 214L87.7721 247.116ZM52.9939 254.314C50.1986 254.314 47.9247 252.03 47.9247 249.223C47.9247 246.416 50.1986 244.133 52.9939 244.133C55.7892 244.133 58.0632 246.416 58.0632 249.223C58.0632 252.03 55.7892 254.314 52.9939 254.314Z" fill="url(#paint0_linear_5279_12879)"/>
<path d="M163 214H120V218H163V214Z" fill="#04394D"/>
<path d="M96.3333 39.3076H70.5775C69.6244 43.425 65.9432 46.505 61.5551 46.505C56.4474 46.505 52.2897 42.3331 52.2897 37.2008C52.2897 32.0685 56.4474 27.8965 61.5551 27.8965C65.9432 27.8965 69.6244 30.9733 70.5775 35.0939H98.07L133.878 71.0488C132.273 71.3443 130.693 71.749 129.148 72.2564L96.3333 39.3076ZM61.5551 32.1102C58.7598 32.1102 56.4858 34.3937 56.4858 37.2008C56.4858 40.0078 58.7598 42.2913 61.5551 42.2913C64.3504 42.2913 66.6244 40.0078 66.6244 37.2008C66.6244 34.3937 64.3504 32.1102 61.5551 32.1102Z" fill="url(#paint1_linear_5279_12879)"/>
<path d="M214 70H129V73H214V70Z" fill="#04394D"/>
<path fill-rule="evenodd" clip-rule="evenodd" d="M731.164 56.7295H705.408L672.594 89.6783C671.829 89.427 671.055 89.201 670.274 89.0009H566V86.0009H670.323L703.671 52.5158H731.164C732.117 48.3952 735.798 45.3184 740.186 45.3184C745.294 45.3184 749.452 49.4904 749.452 54.6226C749.452 59.7549 745.294 63.9269 740.186 63.9269C735.798 63.9269 732.117 60.8469 731.164 56.7295ZM745.255 54.6226C745.255 51.8156 742.982 49.5321 740.186 49.5321C737.391 49.5321 735.117 51.8156 735.117 54.6226C735.117 57.4297 737.391 59.7132 740.186 59.7132C742.982 59.7132 745.255 57.4297 745.255 54.6226ZM689.4 100.626L689.401 100.625L689.403 100.626H689.4ZM689 100.207V101.001H573V97.0009H687.077L701.742 82.2747H727.309C728.262 78.1573 731.943 75.0773 736.331 75.0773C741.442 75.0773 745.597 79.2493 745.597 84.3816C745.597 89.5139 741.439 93.6858 736.331 93.6858C731.943 93.6858 728.262 90.6058 727.309 86.4884H703.478L689.401 100.625C689.268 100.485 689.134 100.345 689 100.207ZM736.331 79.2942C739.127 79.2942 741.401 81.5778 741.401 84.3848C741.401 87.1918 739.127 89.4753 736.331 89.4753C733.536 89.4753 731.262 87.1918 731.262 84.3848C731.262 81.5778 733.536 79.2942 736.331 79.2942ZM722.727 118.951H749.349C750.303 123.068 753.984 126.148 758.372 126.148C763.48 126.148 767.637 121.976 767.637 116.844C767.637 111.711 763.483 107.539 758.372 107.539C753.984 107.539 750.303 110.62 749.349 114.737H720.99L703.23 126.839C703.243 126.893 703.256 126.947 703.269 127.001H589V131.001H704.099C704.113 131.083 704.128 131.166 704.142 131.248L704.515 131.001H705V130.68L722.727 118.951ZM758.372 111.753C761.167 111.753 763.441 114.037 763.441 116.844C763.441 119.651 761.167 121.934 758.372 121.934C755.577 121.934 753.303 119.651 753.303 116.844C753.303 114.037 755.577 111.753 758.372 111.753ZM713.541 91.4075C708.434 91.4075 704.276 95.5795 704.276 100.712C704.276 102.42 704.739 104.02 705.542 105.398L698.18 113.001H583V117.001H699.985C700.003 117.043 700.02 117.085 700.038 117.127L708.427 108.465C709.895 109.444 711.654 110.016 713.544 110.016C718.652 110.016 722.81 105.844 722.81 100.712C722.81 95.5795 718.655 91.4075 713.544 91.4075H713.541ZM713.541 105.799C710.746 105.799 708.472 103.516 708.472 100.709C708.472 97.9015 710.746 95.618 713.541 95.618C716.336 95.618 718.61 97.9015 718.61 100.709C718.61 103.516 716.336 105.799 713.541 105.799Z" fill="url(#paint2_linear_5279_12879)"/>
<path fill-rule="evenodd" clip-rule="evenodd" d="M758.375 160.038C753.987 160.038 750.305 163.118 749.352 167.235H722.73L705 155.504V155H704.239L704.145 154.938L704.134 155H599V159H703.316C703.288 159.116 703.261 159.232 703.233 159.347L720.993 171.449H749.352C750.305 175.566 753.987 178.646 758.375 178.646C763.482 178.646 767.64 174.474 767.64 169.342C767.64 164.21 763.486 160.038 758.375 160.038ZM758.375 174.429C755.579 174.429 753.305 172.146 753.305 169.339C753.305 166.532 755.579 164.248 758.375 164.248C761.17 164.248 763.444 166.532 763.444 169.339C763.444 172.146 761.17 174.429 758.375 174.429ZM704.274 185.478C704.274 183.769 704.738 182.17 705.541 180.792H705.537L698.13 173.141L698.203 173H601V169H700V169.141L700.033 169.063L708.422 177.725C709.89 176.745 711.649 176.173 713.54 176.173C718.65 176.173 722.805 180.345 722.805 185.478C722.805 190.61 718.65 194.782 713.54 194.782C708.429 194.782 704.274 190.607 704.274 185.478ZM718.609 185.478C718.609 182.671 716.335 180.387 713.54 180.387C710.744 180.387 708.47 182.671 708.47 185.478C708.47 188.285 710.744 190.568 713.54 190.568C716.335 190.568 718.609 188.285 718.609 185.478ZM701.748 203.908L686.903 189H604V186H688.983C689.126 185.853 689.268 185.705 689.409 185.556L689.851 186H690V186.149L703.488 199.694H727.319C728.272 195.577 731.953 192.497 736.341 192.497C741.452 192.497 745.607 196.669 745.607 201.801C745.607 206.933 741.449 211.105 736.341 211.105C731.953 211.105 728.272 208.025 727.319 203.908H701.748ZM741.41 201.804C741.41 198.997 739.136 196.714 736.341 196.714C733.546 196.714 731.272 198.997 731.272 201.804C731.272 204.611 733.546 206.895 736.341 206.895C739.136 206.895 741.41 204.611 741.41 201.804ZM731.168 233.669H703.675L670.147 200H604V196H672V196.001C672 196.001 672 196.001 672 196.001L705.412 229.455H731.168C732.121 225.337 735.802 222.257 740.19 222.257C745.301 222.257 749.456 226.429 749.456 231.562C749.456 236.694 745.298 240.866 740.19 240.866C735.802 240.866 732.121 237.786 731.168 233.669ZM745.259 231.562C745.259 228.755 742.985 226.471 740.19 226.471C737.395 226.471 735.121 228.755 735.121 231.562C735.121 234.369 737.395 236.652 740.19 236.652C742.985 236.652 745.259 234.369 745.259 231.562Z" fill="url(#paint3_linear_5279_12879)"/>
<path d="M604 214H647V218H604V214Z" fill="#04394D"/>
<path d="M679.863 247.116H705.619C706.572 242.999 710.253 239.919 714.641 239.919C719.749 239.919 723.907 244.091 723.907 249.223C723.907 254.355 719.749 258.527 714.641 258.527C710.253 258.527 706.572 255.451 705.619 251.33H678.126L643.609 215.86C645.215 215.565 645.504 214.675 647.049 214.167L679.863 247.116ZM714.641 254.314C717.437 254.314 719.711 252.03 719.711 249.223C719.711 246.416 717.437 244.133 714.641 244.133C711.846 244.133 709.572 246.416 709.572 249.223C709.572 252.03 711.846 254.314 714.641 254.314Z" fill="url(#paint4_linear_5279_12879)"/>
<path fill-rule="evenodd" clip-rule="evenodd" d="M697.053 39.3076H671.297L638.705 73.3284C638.414 73.2331 638.164 73.121 637.938 73H554V70H636.602L669.56 35.0939H697.053C698.006 30.9733 701.687 27.8965 706.075 27.8965C711.183 27.8965 715.341 32.0685 715.341 37.2008C715.341 42.3331 711.183 46.505 706.075 46.505C701.687 46.505 698.006 43.425 697.053 39.3076ZM711.144 37.2008C711.144 34.3937 708.87 32.1102 706.075 32.1102C703.28 32.1102 701.006 34.3937 701.006 37.2008C701.006 40.0078 703.28 42.2913 706.075 42.2913C708.87 42.2913 711.144 40.0078 711.144 37.2008Z" fill="url(#paint5_linear_5279_12879)"/>
<path d="M215.566 394.129C233.026 404.005 254.921 399.485 275.166 398.585C302.63 397.385 330.395 403.684 354.389 416.559" stroke="url(#paint6_linear_5279_12879)" stroke-width="3.56329" stroke-miterlimit="10"/>
<path d="M344.396 411.654C334.156 419.666 320.959 424.101 307.741 423.972C294.544 423.822 281.433 419.109 271.386 410.861C266.673 406.984 262.452 402.271 256.754 399.914" stroke="url(#paint7_linear_5279_12879)" stroke-width="3.56329" stroke-miterlimit="10"/>
<path d="M352.443 485.002C351.672 491.772 348.587 498.07 345.417 504.154C342.246 510.238 338.925 516.387 337.554 523.071C336.205 529.755 337.083 537.21 341.646 542.416C343.617 544.665 346.145 546.379 348.652 548.072C351.672 550.107 354.671 552.121 357.692 554.156" stroke="url(#paint8_linear_5279_12879)" stroke-width="3.56329" stroke-miterlimit="10"/>
<path d="M353.848 540.473C357.64 545.871 361.453 551.334 366.402 555.79C371.072 560.011 376.556 563.074 383.005 563.802C390.181 564.617 396.608 560.31 401.6 555.79C406.549 551.334 410.383 545.871 414.154 540.473" stroke="url(#paint9_linear_5279_12879)" stroke-width="3.56329" stroke-miterlimit="10"/>
<path d="M312.27 604.527C323.838 610.804 334.035 619.159 345.454 625.693C351.667 629.25 358.308 632.228 365.335 633.92C368.87 634.777 372.49 635.291 376.132 635.334C379.945 635.398 383.587 634.841 387.401 635.162C391.471 635.527 395.563 635.291 399.59 634.563C407.753 633.084 415.465 629.764 422.577 625.693C433.996 619.181 444.193 610.804 455.762 604.527" stroke="url(#paint10_linear_5279_12879)" stroke-width="3.56329" stroke-miterlimit="10"/>
<path d="M222.102 494.713C240.376 522.842 236.262 560.204 253.422 588.953" stroke="url(#paint11_linear_5279_12879)" stroke-width="3.56329" stroke-miterlimit="10"/>
<path d="M154.527 347.745C157.505 341.832 166.46 343.01 170.766 346.716C189.061 362.441 174.687 390.805 177.664 410.236C178.543 415.977 182.335 421.804 188.205 423.09" stroke="url(#paint12_linear_5279_12879)" stroke-width="3.56329" stroke-miterlimit="10"/>
<path d="M596.469 301.172C619.692 196.391 601.353 82.7201 495.094 28.7765C403.725 -17.6046 286.776 -3.80812 215.393 70.7659C191.357 95.8739 175.568 127.023 167.898 160.208C163.1 180.902 161.364 202.197 161.75 223.363C162.2 249.371 171.605 275.7 171.583 301.151C171.583 303.657 116.975 270.687 153.373 386.436C158.579 404.796 158.579 460.989 194.977 458.483C194.977 458.483 193.67 537.148 209.288 562.128C224.884 587.107 273 640.794 289.903 665.773C306.806 690.753 338.02 721.966 383.523 721.966C383.801 722.223 384.272 722.223 384.551 721.966C430.054 721.966 461.267 690.753 478.17 665.773C495.073 640.794 543.189 587.107 558.786 562.128C574.382 537.148 573.096 458.483 573.096 458.483C609.494 460.989 609.494 404.775 614.7 386.436C651.098 270.687 596.49 303.636 596.49 301.151L596.469 301.172Z" stroke="url(#paint13_linear_5279_12879)" stroke-width="3.56329" stroke-miterlimit="10"/>
<path d="M552.463 394.129C535.003 404.005 513.108 399.485 492.864 398.585C465.399 397.385 437.635 403.684 413.641 416.559" stroke="url(#paint14_linear_5279_12879)" stroke-width="3.56329" stroke-miterlimit="10"/>
<path d="M423.625 411.654C433.865 419.666 447.062 424.101 460.28 423.972C473.477 423.822 486.588 419.109 496.635 410.861C501.348 406.984 505.569 402.271 511.267 399.914" stroke="url(#paint15_linear_5279_12879)" stroke-width="3.56329" stroke-miterlimit="10"/>
<path d="M415.6 485.002C416.372 491.772 419.456 498.07 422.627 504.154C425.798 510.238 429.118 516.387 430.489 523.071C431.839 529.755 430.961 537.21 426.398 542.416C424.427 544.665 421.899 546.379 419.392 548.072C416.371 550.107 413.372 552.121 410.352 554.156" stroke="url(#paint16_linear_5279_12879)" stroke-width="3.56329" stroke-miterlimit="10"/>
<path d="M463.843 595.444C449.81 595.187 435.757 595.872 421.832 597.501C417.569 597.993 413.327 598.593 409.128 599.472C400.494 601.293 392.139 604.356 384.448 608.555H383.57C375.879 604.377 367.524 601.293 358.891 599.472C354.692 598.593 350.45 597.993 346.187 597.501C332.262 595.872 318.208 595.165 304.176 595.444" stroke="url(#paint17_linear_5279_12879)" stroke-width="3.56329" stroke-miterlimit="10"/>
<path d="M545.934 494.713C527.66 522.842 531.773 560.204 514.613 588.953" stroke="url(#paint18_linear_5279_12879)" stroke-width="3.56329" stroke-miterlimit="10"/>
<path d="M613.498 347.745C610.52 341.832 601.565 343.01 597.259 346.716C578.963 362.441 593.338 390.805 590.361 410.236C589.482 415.977 585.69 421.804 579.82 423.09" stroke="url(#paint19_linear_5279_12879)" stroke-width="3.56329" stroke-miterlimit="10"/>
<defs>
<linearGradient id="paint0_linear_5279_12879" x1="83.1142" y1="258.527" x2="83.1142" y2="214" gradientUnits="userSpaceOnUse">
<stop stop-color="#B22234"/>
<stop offset="1" stop-color="#233340"/>
</linearGradient>
<linearGradient id="paint1_linear_5279_12879" x1="107.85" y1="27.8965" x2="107.85" y2="74.9882" gradientUnits="userSpaceOnUse">
<stop stop-color="#B22234"/>
<stop offset="1" stop-color="#233340"/>
</linearGradient>
<linearGradient id="paint2_linear_5279_12879" x1="764.635" y1="62.5776" x2="717.395" y2="171.075" gradientUnits="userSpaceOnUse">
<stop offset="0.0781335" stop-color="#BA2228"/>
<stop offset="1" stop-color="#04394D"/>
</linearGradient>
<linearGradient id="paint3_linear_5279_12879" x1="765.195" y1="172.196" x2="711.531" y2="272.568" gradientUnits="userSpaceOnUse">
<stop offset="0.0781335" stop-color="#BA2228"/>
<stop offset="1" stop-color="#04394D"/>
</linearGradient>
<linearGradient id="paint4_linear_5279_12879" x1="722.389" y1="249.618" x2="697.656" y2="193.984" gradientUnits="userSpaceOnUse">
<stop offset="0.0781335" stop-color="#BA2228"/>
<stop offset="1" stop-color="#04394D"/>
</linearGradient>
<linearGradient id="paint5_linear_5279_12879" x1="713.016" y1="37.7005" x2="691.764" y2="104.227" gradientUnits="userSpaceOnUse">
<stop offset="0.0781335" stop-color="#BA2228"/>
<stop offset="1" stop-color="#04394D"/>
</linearGradient>
<linearGradient id="paint6_linear_5279_12879" x1="284.977" y1="394.129" x2="284.977" y2="416.559" gradientUnits="userSpaceOnUse">
<stop stop-color="#B22234"/>
<stop offset="1" stop-color="#233340"/>
</linearGradient>
<linearGradient id="paint7_linear_5279_12879" x1="300.575" y1="399.914" x2="300.575" y2="423.975" gradientUnits="userSpaceOnUse">
<stop stop-color="#B22234"/>
<stop offset="1" stop-color="#233340"/>
</linearGradient>
<linearGradient id="paint8_linear_5279_12879" x1="347.334" y1="485.002" x2="347.334" y2="554.156" gradientUnits="userSpaceOnUse">
<stop stop-color="#B22234"/>
<stop offset="1" stop-color="#233340"/>
</linearGradient>
<linearGradient id="paint9_linear_5279_12879" x1="384.001" y1="540.473" x2="384.001" y2="563.902" gradientUnits="userSpaceOnUse">
<stop stop-color="#B22234"/>
<stop offset="1" stop-color="#233340"/>
</linearGradient>
<linearGradient id="paint10_linear_5279_12879" x1="384.016" y1="604.527" x2="384.016" y2="635.339" gradientUnits="userSpaceOnUse">
<stop stop-color="#B22234"/>
<stop offset="1" stop-color="#233340"/>
</linearGradient>
<linearGradient id="paint11_linear_5279_12879" x1="237.762" y1="494.713" x2="237.762" y2="588.953" gradientUnits="userSpaceOnUse">
<stop stop-color="#B22234"/>
<stop offset="1" stop-color="#233340"/>
</linearGradient>
<linearGradient id="paint12_linear_5279_12879" x1="171.366" y1="343.623" x2="171.366" y2="423.09" gradientUnits="userSpaceOnUse">
<stop stop-color="#B22234"/>
<stop offset="1" stop-color="#233340"/>
</linearGradient>
<linearGradient id="paint13_linear_5279_12879" x1="384.037" y1="2" x2="384.037" y2="722.159" gradientUnits="userSpaceOnUse">
<stop stop-color="#B22234"/>
<stop offset="1" stop-color="#233340"/>
</linearGradient>
<linearGradient id="paint14_linear_5279_12879" x1="483.052" y1="394.129" x2="483.052" y2="416.559" gradientUnits="userSpaceOnUse">
<stop stop-color="#B22234"/>
<stop offset="1" stop-color="#233340"/>
</linearGradient>
<linearGradient id="paint15_linear_5279_12879" x1="467.446" y1="399.914" x2="467.446" y2="423.975" gradientUnits="userSpaceOnUse">
<stop stop-color="#B22234"/>
<stop offset="1" stop-color="#233340"/>
</linearGradient>
<linearGradient id="paint16_linear_5279_12879" x1="420.709" y1="485.002" x2="420.709" y2="554.156" gradientUnits="userSpaceOnUse">
<stop stop-color="#B22234"/>
<stop offset="1" stop-color="#233340"/>
</linearGradient>
<linearGradient id="paint17_linear_5279_12879" x1="384.009" y1="595.385" x2="384.009" y2="608.555" gradientUnits="userSpaceOnUse">
<stop stop-color="#B22234"/>
<stop offset="1" stop-color="#233340"/>
</linearGradient>
<linearGradient id="paint18_linear_5279_12879" x1="530.274" y1="494.713" x2="530.274" y2="588.953" gradientUnits="userSpaceOnUse">
<stop stop-color="#B22234"/>
<stop offset="1" stop-color="#233340"/>
</linearGradient>
<linearGradient id="paint19_linear_5279_12879" x1="596.659" y1="343.623" x2="596.659" y2="423.09" gradientUnits="userSpaceOnUse">
<stop stop-color="#B22234"/>
<stop offset="1" stop-color="#233340"/>
</linearGradient>
</defs>
</svg>
