<svg width="188" height="291" viewBox="0 0 188 291" fill="none" xmlns="http://www.w3.org/2000/svg">
<path fill-rule="evenodd" clip-rule="evenodd" d="M154.788 0L153.963 0.176923L95.7839 12.6669L62.3502 13.5363L61.6724 13.554L61.2864 14.1114L49.2187 31.5396L19.718 37.6774L18.8016 37.8681L18.6677 38.7945L12.4965 81.4942L0.195831 109.899L0 110.352L0.144699 110.823L10.4684 144.434L9.03739 144.07L0.549709 177.415L0.458992 177.772L0.563419 178.124L8.99609 206.599V235.066V235.842L9.67014 236.227L56.8192 263.128L55.0226 266.958C52.5311 266.208 49.7928 267.345 48.6014 269.754C47.2712 272.442 48.3759 275.696 51.0618 277.024C53.7506 278.355 57.0038 277.25 58.3327 274.564C59.3883 272.43 58.9105 269.941 57.3259 268.34L59.7625 263.146L60.2864 262.029L59.215 261.418L11.6686 234.29V206.406V206.212L11.6136 206.026L3.23032 177.718L11.1432 146.631L16.0509 162.609L17.037 165.82L18.526 162.809L31.5446 136.488L38.7226 133.59C39.9018 136.193 42.9194 137.44 45.6142 136.406C48.4197 135.329 49.8027 132.186 48.7294 129.389C47.6526 126.584 44.5089 125.201 41.7127 126.274C39.6978 127.048 38.4166 128.887 38.2522 130.898L30.0723 134.201L29.6004 134.391L29.3748 134.847L17.6195 158.614L2.84407 110.509L14.8121 82.8721L15.314 83.3434L42.2192 54.6977L68.5538 64.6622L74.0796 83.61H50.5369H49.8789L49.4777 84.1316L32.0753 106.758C29.9176 105.885 27.374 106.479 25.8311 108.367L25.8261 108.373C23.9335 110.718 24.3026 114.114 26.6175 116.005L26.6237 116.01C28.9683 117.903 32.364 117.534 34.2555 115.219L34.2605 115.213C35.9215 113.155 35.8405 110.288 34.2311 108.338L51.1949 86.2825H74.859L78.6861 99.4057L72.3753 132.435L72.2632 133.022L72.6256 133.497L73.6878 132.686C72.6256 133.497 72.6257 133.497 72.6259 133.497L72.6266 133.498L72.6295 133.502L72.641 133.517L72.6867 133.577L72.8653 133.811C73.0219 134.017 73.2515 134.318 73.5439 134.703C74.1286 135.472 74.9641 136.572 75.9667 137.897C77.9721 140.547 80.6453 144.096 83.3178 147.69C85.9918 151.286 88.6597 154.921 90.6569 157.746C91.6569 159.161 92.4797 160.36 93.049 161.245C93.3353 161.69 93.5451 162.036 93.6791 162.282C93.7234 162.363 93.7541 162.423 93.7743 162.466C93.7921 162.593 93.8191 162.7 93.837 162.768C93.8736 162.906 93.9218 163.056 93.9746 163.207C94.0808 163.509 94.2294 163.884 94.4078 164.31C94.7662 165.164 95.2723 166.286 95.872 167.575C97.0728 170.156 98.6708 173.45 100.265 176.689C101.86 179.93 103.454 183.123 104.65 185.506C105.247 186.697 105.746 187.686 106.094 188.377C106.269 188.723 106.406 188.994 106.499 189.179L106.606 189.39L106.634 189.444L106.641 189.458L106.642 189.462L106.643 189.463C106.643 189.463 106.643 189.463 107.835 188.859L106.643 189.463L106.917 190.004L107.504 190.154L132.403 196.512L160.827 219.32L161.456 219.825L162.196 219.503L170.759 215.776C172.226 217.408 174.598 218.053 176.771 217.197C179.555 216.101 180.946 212.968 179.843 210.168C178.746 207.383 175.614 205.992 172.813 207.096C170.266 208.099 168.885 210.806 169.513 213.403L161.87 216.73L133.851 194.247L133.625 194.066L133.345 193.995L108.753 187.714L108.48 187.174C108.132 186.484 107.635 185.497 107.038 184.307C105.845 181.928 104.253 178.741 102.663 175.509C101.071 172.275 99.4833 169.002 98.295 166.448C97.7 165.169 97.2107 164.082 96.8722 163.276C96.7022 162.87 96.577 162.552 96.4966 162.322L96.478 162.269L96.464 162.227L96.452 162.19C96.4392 162.15 96.4298 162.118 96.4234 162.095C96.3995 161.812 96.3019 161.579 96.2646 161.49L96.2638 161.488C96.1982 161.331 96.114 161.165 96.0251 161.002C95.8455 160.672 95.5955 160.263 95.2965 159.799C94.6952 158.864 93.8458 157.628 92.8391 156.204C90.823 153.352 88.1397 149.696 85.4624 146.096C82.7838 142.493 80.1058 138.938 78.0979 136.284C77.0938 134.957 76.257 133.855 75.6712 133.085L75.3645 132.682L75.1123 132.351L81.3715 99.5913L81.4319 99.2753L81.3418 98.9664L71.1541 64.0331L85.8877 49.1321L124.774 45.0937L124.498 42.4356L85.1358 46.5234L84.66 46.5728L84.3236 46.9129L69.3145 62.0926L42.3295 51.8821L41.4942 51.566L40.8827 52.217L15.5263 79.2138L21.1788 40.1032L50.2856 34.0473L50.8082 33.9386L51.112 33.4997L63.0975 16.1903L95.9776 15.3352L96.1019 15.332L96.2234 15.3059L153.7 2.96678L182.096 39.8014L184.213 38.1698L155.302 0.667565L154.788 0ZM50.9968 270.939C51.5931 269.733 52.9497 269.156 54.1972 269.501L55.0408 269.897C56.1448 270.663 56.5502 272.14 55.9374 273.379C55.2616 274.745 53.61 275.303 52.2469 274.629C50.8811 273.953 50.3224 272.302 50.9968 270.939ZM42.6704 128.769C44.0979 128.221 45.6901 128.929 46.2345 130.347C46.7824 131.775 46.0748 133.367 44.6565 133.911C43.229 134.459 41.6369 133.752 41.0925 132.333C40.5445 130.906 41.2521 129.314 42.6704 128.769ZM27.2667 261.523L40.8458 281.946L72.5682 284.542L67.3573 274.798L65.2953 270.943L69.1603 272.987L96.5211 287.458L126.753 277.989L127.118 277.875L127.488 277.971L164.042 287.457L183.675 274.478L185.149 276.707L165.019 290.014L164.523 290.343L163.947 290.193L127.187 280.654L96.7882 290.175L96.2566 290.341L95.7641 290.081L71.7758 277.394L76.081 285.443L77.2371 287.605L74.7937 287.405L39.9826 284.557L39.3373 284.504L38.9788 283.965L25.0412 263.003L27.2667 261.523ZM31.5231 109.468L31.9123 109.767C32.9723 110.749 33.1079 112.383 32.1835 113.531C31.2178 114.71 29.4996 114.895 28.3054 113.933C27.1268 112.968 26.9419 111.249 27.9031 110.055C28.8012 108.959 30.3501 108.722 31.5231 109.468ZM96.4142 162.057C96.4137 162.055 96.4143 162.059 96.4167 162.069C96.4154 162.062 96.4145 162.058 96.4142 162.057ZM177.356 211.147C176.794 209.72 175.204 209.026 173.793 209.582C172.365 210.144 171.672 211.735 172.228 213.146C172.79 214.573 174.38 215.267 175.791 214.711C177.219 214.149 177.912 212.558 177.356 211.147ZM107.55 80.4616L107.118 80.7334L82.7459 96.0742L84.1695 98.3359L108.11 83.2669L148.345 90.0778C148.283 91.133 148.525 92.2172 149.102 93.1896C150.639 95.7798 153.984 96.5895 156.55 95.0666C159.141 93.5295 159.95 90.1845 158.427 87.618C156.89 85.0278 153.545 84.2181 150.979 85.7411C150.21 86.1972 149.598 86.8124 149.158 87.5193L149.16 87.5052L108.053 80.5468L107.55 80.4616ZM156.129 88.9818C155.359 87.6846 153.664 87.2555 152.343 88.0394C151.045 88.8091 150.616 90.5049 151.4 91.8258C152.17 93.123 153.866 93.5521 155.187 92.7683C156.484 91.9985 156.913 90.3028 156.129 88.9818ZM67.7091 90.8678C63.6748 87.6112 57.8362 88.245 54.5809 92.2292L54.5758 92.2353C51.3193 96.2696 51.953 102.108 55.9372 105.364L55.9434 105.369C59.9777 108.625 65.8162 107.991 69.0716 104.007L69.0766 104.001C72.3332 99.9667 71.6994 94.1282 67.7152 90.8728L67.7091 90.8678ZM66.0274 92.9448C68.8753 95.2744 69.3248 99.4354 66.9996 102.319C64.6699 105.167 60.5089 105.617 57.625 103.291C54.7772 100.962 54.3277 96.8009 56.6528 93.9171C58.9825 91.0691 63.1435 90.6196 66.0274 92.9448ZM36.9164 63.7835C40.6954 59.1585 47.4718 58.4231 52.1547 62.2033L52.1609 62.2083C56.786 65.9873 57.5213 72.7637 53.7411 77.4467L53.7361 77.4528C49.9571 82.0779 43.1807 82.8132 38.4977 79.0331L38.4916 79.028C33.8665 75.249 33.1312 68.4726 36.9114 63.7896L36.9164 63.7835ZM51.6641 75.7649C54.5129 72.2324 53.9618 67.1336 50.473 64.2803C46.9405 61.4315 41.8417 61.9826 38.9884 65.4713C36.1395 69.0038 36.6907 74.1028 40.1795 76.9561C43.712 79.8048 48.8108 79.2537 51.6641 75.7649ZM81.2308 21.7625C75.4668 17.1095 67.1273 18.0142 62.4755 23.7074L62.4705 23.7135C57.8176 29.4776 58.7223 37.8171 64.4155 42.4689L64.4216 42.4739C70.1857 47.1268 78.5252 46.2221 83.1769 40.5289L83.1819 40.5228C87.8348 34.7587 86.9302 26.4192 81.237 21.7675L81.2308 21.7625ZM79.5491 23.8395C84.106 27.5655 84.8264 34.2274 81.1049 38.841C77.3789 43.3979 70.717 44.1184 66.1033 40.3968C61.5465 36.6708 60.826 30.0088 64.5476 25.3952C68.2736 20.8384 74.9355 20.118 79.5491 23.8395ZM55.5874 147.892C60.4137 141.985 69.0658 141.047 75.0461 145.874L75.0522 145.879C80.959 150.706 81.8975 159.358 77.0701 165.338L77.0651 165.344C72.2388 171.251 63.5867 172.189 57.6064 167.362L57.6003 167.357C51.6935 162.531 50.7549 153.879 55.5824 147.898L55.5874 147.892ZM74.9931 163.656C78.8891 158.826 78.1348 151.852 73.3643 147.951C68.5345 144.055 61.56 144.81 57.6594 149.58C53.7633 154.41 54.5176 161.384 59.2881 165.285C64.118 169.181 71.0925 168.427 74.9931 163.656ZM117.937 95.5453C110.66 89.6706 100.132 90.8124 94.2584 98.0009L94.2534 98.007C88.3787 105.285 89.5204 115.812 96.7089 121.686L96.7151 121.691C103.993 127.566 114.521 126.424 120.394 119.235L120.399 119.229C126.274 111.952 125.132 101.424 117.944 95.5503L117.937 95.5453ZM116.256 97.6223C122.308 102.57 123.265 111.42 118.322 117.548C113.374 123.6 104.524 124.557 98.3968 119.614C92.3446 114.666 91.3871 105.816 96.3304 99.6887C101.278 93.6365 110.128 92.679 116.256 97.6223ZM100.14 145.153C104.268 140.101 111.67 139.298 116.785 143.427L116.791 143.432C121.844 147.56 122.647 154.962 118.517 160.077L118.512 160.083C114.384 165.136 106.983 165.939 101.867 161.809L101.861 161.804C96.8088 157.676 96.0058 150.275 100.135 145.159L100.14 145.153ZM116.44 158.395C119.638 154.43 119.019 148.706 115.103 145.504C111.139 142.306 105.414 142.925 102.212 146.841C99.0141 150.806 99.633 156.53 103.549 159.732C107.514 162.93 113.238 162.311 116.44 158.395ZM93.8177 129.197C91.0808 126.987 87.118 127.418 84.9098 130.12L84.9048 130.127C82.6955 132.864 83.1261 136.826 85.8286 139.035L85.8347 139.04C88.5716 141.249 92.5345 140.818 94.7426 138.116L94.7476 138.11C96.9569 135.373 96.5264 131.41 93.8239 129.202L93.8177 129.197ZM92.136 131.274C93.7022 132.556 93.9485 134.842 92.6706 136.428C91.3882 137.994 89.1029 138.24 87.5164 136.963C85.9502 135.68 85.7039 133.395 86.9818 131.808C88.2643 130.242 90.5496 129.996 92.136 131.274ZM19.5809 221.229C22.8362 217.245 28.6748 216.611 32.7091 219.868L32.7152 219.873C36.6994 223.128 37.3332 228.967 34.0766 233.001L34.0716 233.007C30.8162 236.991 24.9777 237.625 20.9434 234.369L20.9372 234.364C16.953 231.108 16.3193 225.27 19.5758 221.235L19.5809 221.229ZM31.9996 231.319C34.3248 228.435 33.8753 224.274 31.0274 221.945C28.1435 219.62 23.9825 220.069 21.6528 222.917C19.3277 225.801 19.7772 229.962 22.625 232.291C25.5089 234.617 29.6699 234.167 31.9996 231.319ZM73.5243 241.98C69.2738 238.548 63.1226 239.216 59.6927 243.414L59.6877 243.42C56.2566 247.671 56.9242 253.822 61.122 257.252L61.1282 257.257C65.3787 260.688 71.5298 260.02 74.9598 255.822L74.9648 255.816C78.3959 251.566 77.7283 245.415 73.5304 241.985L73.5243 241.98ZM71.8426 244.057C74.9041 246.561 75.3875 251.034 72.8878 254.134C70.3836 257.196 65.9099 257.679 62.8099 255.18C59.7483 252.675 59.265 248.202 61.7647 245.102C64.269 242.04 68.7426 241.557 71.8426 244.057ZM90.6927 266.414C94.1226 262.216 100.274 261.548 104.524 264.98L104.53 264.985C108.728 268.415 109.396 274.566 105.965 278.816L105.96 278.822C102.53 283.02 96.3787 283.688 92.1282 280.257L92.122 280.252C87.9242 276.822 87.2566 270.671 90.6877 266.42L90.6927 266.414ZM103.888 277.134C106.387 274.034 105.904 269.561 102.843 267.057C99.7426 264.557 95.269 265.04 92.7647 268.102C90.265 271.202 90.7484 275.675 93.8099 278.18C96.9099 280.679 101.384 280.196 103.888 277.134ZM167.6 259.539C162.269 255.235 154.555 256.072 150.252 261.338L150.247 261.344C145.943 266.676 146.78 274.39 152.046 278.693L152.052 278.698C157.384 283.001 165.098 282.164 169.401 276.898L169.406 276.892C173.709 271.561 172.872 263.846 167.607 259.544L167.6 259.539ZM165.919 261.616C170.048 264.993 170.701 271.029 167.329 275.211C163.952 279.34 157.915 279.993 153.734 276.62C149.604 273.243 148.951 267.207 152.324 263.026C155.701 258.896 161.737 258.243 165.919 261.616ZM68.5743 263.566C70.2588 261.505 73.2839 261.176 75.3721 262.861L75.3782 262.866C77.4399 264.551 77.7688 267.576 76.0831 269.664L76.0781 269.67C74.3936 271.732 71.3686 272.061 69.2804 270.375L69.2742 270.37C67.2126 268.686 66.8837 265.661 68.5693 263.572L68.5743 263.566ZM74.0061 267.982C74.7604 267.045 74.6157 265.697 73.6904 264.938C72.7526 264.184 71.4051 264.329 70.6463 265.254C69.8921 266.192 70.0368 267.539 70.9621 268.298C71.8999 269.052 73.2474 268.908 74.0061 267.982ZM137.633 263.309C134.68 260.925 130.404 261.389 128.022 264.305L128.017 264.311C125.633 267.265 126.097 271.54 129.013 273.923L129.019 273.928C131.973 276.312 136.248 275.847 138.631 272.931L138.636 272.925C141.02 269.972 140.555 265.696 137.639 263.314L137.633 263.309ZM135.951 265.386C137.731 266.843 138.011 269.44 136.559 271.243C135.102 273.023 132.504 273.303 130.701 271.851C128.921 270.394 128.641 267.796 130.094 265.993C131.551 264.213 134.149 263.933 135.951 265.386ZM36.798 236.936C38.8316 234.447 42.4818 234.05 45.0025 236.085L45.0087 236.09C47.4975 238.124 47.8942 241.774 45.8595 244.294L45.8545 244.301C43.8209 246.789 40.1706 247.186 37.6499 245.151L37.6438 245.146C35.1549 243.113 34.7582 239.463 36.793 236.942L36.798 236.936ZM43.7824 242.613C44.8858 241.243 44.6734 239.27 43.3208 238.162C41.9506 237.059 39.9779 237.271 38.87 238.624C37.7666 239.994 37.9791 241.967 39.3316 243.074C40.7019 244.178 42.6746 243.965 43.7824 242.613ZM44.633 259.309C41.6798 256.925 37.4043 257.389 35.0217 260.305L35.0167 260.311C32.6328 263.265 33.0972 267.54 36.0133 269.923L36.0195 269.928C38.9726 272.312 43.2481 271.847 45.6308 268.931L45.6358 268.925C48.0196 265.972 47.5552 261.696 44.6391 259.314L44.633 259.309ZM42.9513 261.386C44.731 262.843 45.0112 265.44 43.5588 267.243C42.1019 269.023 39.5039 269.303 37.7012 267.851C35.9214 266.394 35.6412 263.796 37.0937 261.993C38.5507 260.213 41.1486 259.933 42.9513 261.386ZM51.0282 210.968C54.9818 206.13 62.0708 205.36 66.97 209.315L66.9761 209.32C71.8148 213.274 72.584 220.363 68.6293 225.262L68.6243 225.268C64.6707 230.107 57.5817 230.876 52.6825 226.921L52.6764 226.916C47.8377 222.963 47.0685 215.874 51.0232 210.974L51.0282 210.968ZM66.5523 223.58C69.5756 219.831 68.9906 214.42 65.2882 211.392C61.5395 208.369 56.1281 208.954 53.1002 212.656C50.0768 216.405 50.6618 221.816 54.3643 224.844C58.113 227.868 63.5244 227.283 66.5523 223.58ZM112.046 225.874C106.066 221.047 97.4137 221.985 92.5874 227.892L92.5824 227.898C87.7549 233.879 88.6935 242.531 94.6003 247.357L94.6064 247.362C100.587 252.189 109.239 251.251 114.065 245.344L114.07 245.338C118.898 239.358 117.959 230.706 112.052 225.879L112.046 225.874ZM110.364 227.951C115.135 231.852 115.889 238.826 111.993 243.656C108.093 248.427 101.118 249.181 96.2881 245.285C91.5176 241.384 90.7633 234.41 94.6594 229.58C98.56 224.81 105.535 224.055 110.364 227.951ZM79.9164 183.784C83.6954 179.158 90.4718 178.423 95.1547 182.203L95.1609 182.208C99.786 185.987 100.521 192.764 96.7411 197.447L96.7361 197.453C92.9571 202.078 86.1807 202.813 81.4977 199.033L81.4916 199.028C76.8665 195.249 76.1312 188.473 79.9114 183.79L79.9164 183.784ZM94.6641 195.765C97.5129 192.232 96.9618 187.134 93.473 184.28C89.9405 181.432 84.8417 181.983 81.9884 185.471C79.1395 189.004 79.6907 194.103 83.1795 196.956C86.712 199.805 91.8108 199.254 94.6641 195.765ZM114.448 199.42C111.279 196.862 106.691 197.36 104.134 200.49L104.129 200.496C101.57 203.666 102.068 208.254 105.198 210.811L105.204 210.816C108.374 213.374 112.962 212.876 115.519 209.746L115.524 209.74C118.082 206.571 117.584 201.983 114.454 199.425L114.448 199.42ZM112.766 201.497C114.76 203.129 115.074 206.04 113.447 208.058C111.815 210.052 108.905 210.366 106.886 208.739C104.893 207.107 104.579 204.197 106.206 202.178C107.837 200.184 110.748 199.87 112.766 201.497ZM128.581 211.229C131.836 207.245 137.675 206.611 141.709 209.868L141.715 209.873C145.699 213.128 146.333 218.967 143.077 223.001L143.072 223.007C139.816 226.991 133.978 227.625 129.943 224.369L129.937 224.364C125.953 221.108 125.319 215.27 128.576 211.235L128.581 211.229ZM141 221.319C143.325 218.435 142.875 214.274 140.027 211.945C137.144 209.62 132.982 210.069 130.653 212.917C128.328 215.801 128.777 219.962 131.625 222.291C134.509 224.617 138.67 224.167 141 221.319ZM90.3721 165.861C88.2839 164.176 85.2588 164.505 83.5743 166.566L83.5693 166.572C81.8837 168.661 82.2126 171.686 84.2742 173.37L84.2804 173.375C86.3686 175.061 89.3936 174.732 91.0781 172.67L91.0831 172.664C92.7688 170.576 92.4399 167.551 90.3782 165.866L90.3721 165.861ZM88.6904 167.938C89.6157 168.697 89.7604 170.045 89.0061 170.982C88.2474 171.908 86.8999 172.052 85.9621 171.298C85.0368 170.539 84.8921 169.192 85.6463 168.254C86.4051 167.329 87.7526 167.184 88.6904 167.938ZM47.0217 40.3053C49.4043 37.3892 53.6798 36.9247 56.633 39.3086L56.6391 39.3136C59.5552 41.6963 60.0196 45.9718 57.6358 48.9249L57.6308 48.931C55.2481 51.8471 50.9726 52.3116 48.0195 49.9277L48.0133 49.9227C45.0972 47.5401 44.6328 43.2645 47.0167 40.3114L47.0217 40.3053ZM55.5588 47.2431C57.0112 45.4405 56.731 42.8426 54.9513 41.3856C53.1486 39.9332 50.5507 40.2133 49.0937 41.9931C47.6412 43.7958 47.9214 46.3938 49.7012 47.8507C51.5039 49.3032 54.1019 49.023 55.5588 47.2431ZM32.0025 44.0849C29.4818 42.0502 25.8316 42.4469 23.798 44.9357L23.793 44.9418C21.7582 47.4625 22.1549 51.1128 24.6438 53.1464L24.6499 53.1514C27.1706 55.1862 30.8209 54.7895 32.8545 52.3006L32.8595 52.2945C34.8942 49.7738 34.4975 46.1235 32.0087 44.0899L32.0025 44.0849ZM30.3208 46.1619C31.6734 47.2698 31.8858 49.2425 30.7824 50.6128C29.6746 51.9653 27.7019 52.1777 26.3316 51.0744C24.9791 49.9665 24.7666 47.9938 25.87 46.6236C26.9779 45.271 28.9506 45.0586 30.3208 46.1619ZM109.357 25.8596C112.263 22.3027 117.477 21.7366 121.079 24.6441L121.085 24.6491C124.642 27.5554 125.208 32.7687 122.3 36.3706L122.295 36.3767C119.389 39.9337 114.176 40.4997 110.574 37.5922L110.568 37.5872C107.011 34.6809 106.445 29.4676 109.352 25.8657L109.357 25.8596ZM120.223 34.6888C122.199 32.2375 121.818 28.7017 119.397 26.7211C116.946 24.745 113.41 25.1268 111.429 27.5474C109.453 29.9988 109.835 33.5347 112.256 35.5153C114.707 37.4913 118.243 37.1095 120.223 34.6888ZM100.003 21.0849C97.4818 19.0502 93.8316 19.4469 91.798 21.9357L91.793 21.9418C89.7582 24.4625 90.1549 28.1128 92.6438 30.1464L92.6499 30.1514C95.1706 32.1862 98.8209 31.7895 100.854 29.3006L100.859 29.2945C102.894 26.7738 102.498 23.1235 100.009 21.0899L100.003 21.0849ZM98.3208 23.1619C99.6734 24.2698 99.8858 26.2425 98.7824 27.6128C97.6746 28.9653 95.7019 29.1777 94.3316 28.0744C92.9791 26.9665 92.7666 24.9938 93.87 23.6236C94.9779 22.271 96.9506 22.0586 98.3208 23.1619ZM21.1335 85.49C23.6907 82.3603 28.2788 81.862 31.4482 84.4204L31.4543 84.4254C34.5841 86.9826 35.0823 91.5708 32.524 94.7401L32.5189 94.7463C29.9617 97.876 25.3736 98.3743 22.2043 95.8159L22.1981 95.8109C19.0684 93.2537 18.5701 88.6656 21.1285 85.4962L21.1335 85.49ZM30.4469 93.0584C32.074 91.0395 31.7599 88.1289 29.7665 86.4974C27.7476 84.8705 24.837 85.1845 23.2056 87.1779C21.5785 89.1968 21.8925 92.1073 23.8859 93.7388C25.9048 95.3659 28.8154 95.0518 30.4469 93.0584ZM21.1873 128.973C18.8829 127.113 15.5452 127.476 13.6862 129.751L13.6812 129.757C11.8209 132.062 12.1838 135.399 14.459 137.258L14.4651 137.263C16.7696 139.123 20.1073 138.761 21.9663 136.485L21.9713 136.479C23.8315 134.175 23.4687 130.837 21.1935 128.978L21.1873 128.973ZM19.5056 131.05C20.6445 131.983 20.8231 133.644 19.8943 134.798C18.961 135.936 17.3009 136.115 16.1469 135.186C15.0079 134.253 14.8293 132.593 15.7582 131.439C16.6915 130.3 18.3516 130.121 19.5056 131.05ZM51.1335 114.49C53.6907 111.36 58.2788 110.862 61.4482 113.42L61.4543 113.425C64.5841 115.983 65.0823 120.571 62.524 123.74L62.5189 123.746C59.9617 126.876 55.3736 127.374 52.2043 124.816L52.1981 124.811C49.0684 122.254 48.5701 117.666 51.1285 114.496L51.1335 114.49ZM60.4469 122.058C62.074 120.04 61.7599 117.129 59.7665 115.497C57.7476 113.87 54.837 114.184 53.2056 116.178C51.5785 118.197 51.8925 121.107 53.8859 122.739C55.9048 124.366 58.8154 124.052 60.4469 122.058ZM49.4482 172.42C46.2788 169.862 41.6907 170.36 39.1335 173.49L39.1285 173.496C36.5701 176.666 37.0684 181.254 40.1981 183.811L40.2043 183.816C43.3736 186.374 47.9617 185.876 50.5189 182.746L50.524 182.74C53.0823 179.571 52.5841 174.983 49.4543 172.425L49.4482 172.42ZM47.7665 174.497C49.7599 176.129 50.074 179.04 48.4469 181.058C46.8154 183.052 43.9048 183.366 41.8859 181.739C39.8925 180.107 39.5785 177.197 41.2056 175.178C42.837 173.184 45.7476 172.87 47.7665 174.497ZM7.90984 104.12C10.118 101.418 14.0808 100.987 16.8178 103.197L16.8239 103.202C19.5264 105.41 19.9569 109.373 17.7476 112.11L17.7426 112.116C15.5345 114.818 11.5716 115.249 8.8347 113.04L8.82856 113.035C6.12608 110.826 5.69553 106.864 7.90483 104.127L7.90984 104.12ZM15.6706 110.428C16.9485 108.842 16.7022 106.556 15.136 105.274C13.5496 103.996 11.2642 104.242 9.98185 105.808C8.70393 107.395 8.95025 109.68 10.5164 110.963C12.1029 112.24 14.3882 111.994 15.6706 110.428ZM96.5243 57.9796C92.2738 54.5485 86.1226 55.2161 82.6927 59.4139L82.6877 59.4201C79.2566 63.6706 79.9242 69.8218 84.122 73.2517L84.1282 73.2567C88.3787 76.6878 94.5298 76.0202 97.9598 71.8224L97.9648 71.8162C101.396 67.5657 100.728 61.4145 96.5304 57.9846L96.5243 57.9796ZM94.8426 60.0566C97.9041 62.5608 98.3875 67.0344 95.8878 70.1345C93.3836 73.196 88.9099 73.6794 85.8099 71.1797C82.7484 68.6755 82.265 64.2018 84.7647 61.1018C87.269 58.0403 91.7426 57.5569 94.8426 60.0566ZM142.245 67.6748C144.977 64.3315 149.878 63.7993 153.263 66.5323L153.27 66.5373C156.613 69.269 157.145 74.1698 154.412 77.5554L154.407 77.5615C151.675 80.9048 146.775 81.437 143.389 78.7041L143.383 78.699C140.04 75.9673 139.507 71.0666 142.24 67.681L142.245 67.6748ZM152.335 75.8736C154.137 73.6385 153.789 70.4153 151.582 68.6093C149.347 66.8077 146.123 67.1557 144.317 69.3627C142.516 71.5979 142.864 74.821 145.071 76.627C147.306 78.4286 150.529 78.0807 152.335 75.8736ZM131.187 70.9731C128.883 69.1129 125.545 69.4757 123.686 71.7509L123.681 71.7571C121.821 74.0615 122.184 77.3992 124.459 79.2582L124.465 79.2632C126.77 81.1234 130.107 80.7606 131.966 78.4854L131.971 78.4792C133.832 76.1748 133.469 72.8371 131.193 70.9781L131.187 70.9731ZM129.506 73.0501C130.645 73.9834 130.823 75.6435 129.894 76.7975C128.961 77.9365 127.301 78.115 126.147 77.1862C125.008 76.2529 124.829 74.5928 125.758 73.4388C126.691 72.2999 128.352 72.1213 129.506 73.0501ZM81.6862 80.7509C83.5452 78.4757 86.8829 78.1129 89.1873 79.9731L89.1935 79.9781C91.4687 81.8371 91.8315 85.1748 89.9713 87.4792L89.9663 87.4854C88.1073 89.7606 84.7696 90.1234 82.4651 88.2632L82.459 88.2582C80.1838 86.3992 79.821 83.0615 81.6812 80.7571L81.6862 80.7509ZM87.8943 85.7975C88.8231 84.6435 88.6445 82.9834 87.5056 82.0501C86.3516 81.1213 84.6915 81.2999 83.7582 82.4388C82.8293 83.5928 83.0079 85.2529 84.1469 86.1862C85.3009 87.115 86.961 86.9365 87.8943 85.7975ZM118.633 51.3086C115.68 48.9247 111.404 49.3892 109.022 52.3053L109.017 52.3114C106.633 55.2645 107.097 59.5401 110.013 61.9227L110.019 61.9277C112.973 64.3116 117.248 63.8471 119.631 60.931L119.636 60.9249C122.02 57.9718 121.555 53.6963 118.639 51.3136L118.633 51.3086ZM116.951 53.3856C118.731 54.8426 119.011 57.4405 117.559 59.2431C116.102 61.023 113.504 61.3032 111.701 59.8507C109.921 58.3938 109.641 55.7958 111.094 53.9931C112.551 52.2133 115.149 51.9332 116.951 53.3856ZM57.7087 191.785C59.6001 189.47 62.9959 189.101 65.3405 190.994L65.3466 190.999C67.6616 192.89 68.0307 196.286 66.138 198.631L66.133 198.637C64.2416 200.952 60.8458 201.321 58.5012 199.428L58.4951 199.423C56.1801 197.532 55.811 194.136 57.7037 191.791L57.7087 191.785ZM64.061 196.949C65.0223 195.755 64.8374 194.037 63.6588 193.071C62.4646 192.11 60.7464 192.295 59.7807 193.473C58.8194 194.667 59.0043 196.385 60.1829 197.351C61.3771 198.312 63.0953 198.128 64.061 196.949ZM82.5569 221.749C80.6849 220.238 77.9724 220.533 76.4625 222.381L76.4575 222.388C74.9464 224.26 75.2414 226.972 77.0894 228.482L77.0956 228.487C78.9676 229.998 81.68 229.703 83.19 227.855L83.195 227.849C84.7061 225.977 84.411 223.264 82.563 221.754L82.5569 221.749ZM80.8752 223.826C81.5868 224.411 81.6977 225.446 81.118 226.167C80.5337 226.879 79.4988 226.99 78.7773 226.41C78.0656 225.826 77.9548 224.791 78.5345 224.069C79.1187 223.358 80.1536 223.247 80.8752 223.826ZM29.9098 199.12C32.118 196.418 36.0808 195.987 38.8178 198.197L38.8239 198.202C41.5264 200.41 41.9569 204.373 39.7476 207.11L39.7426 207.116C37.5345 209.818 33.5716 210.249 30.8347 208.04L30.8286 208.035C28.1261 205.826 27.6955 201.864 29.9048 199.127L29.9098 199.12ZM37.6706 205.428C38.9485 203.842 38.7022 201.556 37.136 200.274C35.5496 198.996 33.2642 199.242 31.9818 200.808C30.7039 202.395 30.9503 204.68 32.5164 205.963C34.1029 207.24 36.3882 206.994 37.6706 205.428ZM135.633 12.3086C132.68 9.92474 128.404 10.3892 126.022 13.3053L126.017 13.3114C123.633 16.2646 124.097 20.5401 127.013 22.9227L127.019 22.9277C129.973 25.3116 134.248 24.8471 136.631 21.931L136.636 21.9249C139.02 18.9718 138.555 14.6963 135.639 12.3136L135.633 12.3086ZM133.951 14.3856C135.731 15.8426 136.011 18.4405 134.559 20.2431C133.102 22.023 130.504 22.3032 128.701 20.8507C126.921 19.3938 126.641 16.7958 128.094 14.9931C129.551 13.2133 132.149 12.9332 133.951 14.3856ZM133.134 40.49C135.691 37.3603 140.279 36.862 143.448 39.4204L143.454 39.4254C146.584 41.9826 147.082 46.5708 144.524 49.7401L144.519 49.7463C141.962 52.876 137.374 53.3743 134.204 50.8159L134.198 50.8109C131.068 48.2537 130.57 43.6656 133.128 40.4962L133.134 40.49ZM142.447 48.0584C144.074 46.0395 143.76 43.1289 141.766 41.4974C139.748 39.8704 136.837 40.1845 135.206 42.1779C133.579 44.1968 133.893 47.1073 135.886 48.7388C137.905 50.3659 140.815 50.0518 142.447 48.0584ZM157.709 11.8678C153.675 8.61121 147.836 9.24497 144.581 13.2292L144.576 13.2353C141.319 17.2696 141.953 23.1082 145.937 26.3635L145.943 26.3686C149.978 29.6251 155.816 28.9913 159.072 25.0071L159.077 25.001C162.333 20.9667 161.699 15.1282 157.715 11.8728L157.709 11.8678ZM156.027 13.9448C158.875 16.2744 159.325 20.4354 157 23.3192C154.67 26.1672 150.509 26.6167 147.625 24.2915C144.777 21.9618 144.328 17.8009 146.653 14.9171C148.982 12.0691 153.144 11.6196 156.027 13.9448ZM75.1774 174.245L77.8946 172.674L77.1437 175.721L71.1476 200.054L91.5358 216.941H114.488H115.054L115.448 217.348L133.444 235.932L161.7 229.224C161.971 227.018 163.583 225.105 165.902 224.592C168.81 223.943 171.733 225.75 172.387 228.704C173.035 231.634 171.227 234.534 168.274 235.187C165.625 235.773 163 234.351 162.038 231.89L133.321 238.708L132.582 238.883L132.053 238.337L113.922 219.614H91.0542H90.5727L90.2019 219.307L68.7972 201.577L68.1516 201.043L68.3522 200.229L73.7979 178.129L43.1098 195.872L42.2998 196.34L41.5827 195.739L21.3344 178.768L23.0511 176.72L42.5822 193.09L75.1774 174.245ZM166.483 227.201C167.973 226.868 169.448 227.794 169.777 229.281C170.111 230.793 169.186 232.248 167.697 232.578C166.186 232.912 164.73 231.987 164.4 230.498L164.4 230.495C164.067 229.005 164.993 227.53 166.481 227.201L166.483 227.201ZM13.1562 179.045L23.3996 208.073L42.5741 217.068L42.9709 217.254L43.1804 217.639L53.2086 236.071H81.194H82.0184L82.3882 236.808L92.0116 255.982H115.935C116.509 253.491 118.653 251.573 121.309 251.573C124.423 251.573 126.834 254.211 126.834 257.318C126.834 260.425 124.423 263.064 121.309 263.064C118.653 263.064 116.509 261.146 115.935 258.655H91.1872H90.3627L89.9929 257.918L80.3695 238.744H52.4144H51.6202L51.2406 238.046L41.0423 219.301L21.7582 210.255L21.2518 210.018L21.0656 209.49L10.636 179.934L13.1562 179.045ZM121.309 254.245C122.82 254.245 124.162 255.556 124.162 257.318C124.162 259.08 122.82 260.391 121.309 260.391C119.798 260.391 118.456 259.08 118.456 257.318C118.456 255.556 119.798 254.245 121.309 254.245ZM52.9044 139.701L64.9704 133.363L66.2133 135.729L54.4473 141.91L42.6616 159.503C42.9056 159.806 43.1207 160.141 43.3008 160.505C44.6272 163.186 43.5589 166.448 40.8589 167.784C38.1779 169.11 34.9153 168.042 33.5795 165.342C32.2531 162.661 33.3215 159.398 36.0215 158.063C37.4824 157.34 39.1159 157.328 40.5163 157.904L52.4157 140.141L52.6043 139.859L52.9044 139.701ZM37.2066 160.458C38.5837 159.777 40.2336 160.332 40.9055 161.69C41.5868 163.067 41.0319 164.717 39.6738 165.389C38.2966 166.07 36.6468 165.515 35.9749 164.157C35.2935 162.78 35.8485 161.13 37.2066 160.458ZM159.759 44.1304L150.989 56.6354L120.021 65.1403L120.729 67.7174L151.575 59.2459L185.934 82.6281L187.437 80.4187L153.683 57.4482L162.744 44.5278L163.542 43.3907L162.375 42.6377L142.192 29.6164L140.743 31.8621L159.759 44.1304ZM167.368 253.725L185.958 240.841L184.436 238.645L166.19 251.29H148.039C147.56 248.782 145.354 246.885 142.706 246.885C139.708 246.885 137.277 249.316 137.277 252.315C137.277 255.313 139.708 257.744 142.706 257.744C145.13 257.744 147.183 256.155 147.88 253.963H166.607H167.025L167.368 253.725ZM145.463 252.315C145.463 250.792 144.228 249.558 142.706 249.558C141.184 249.558 139.949 250.792 139.949 252.315C139.949 253.837 141.184 255.071 142.706 255.071C144.228 255.071 145.463 253.837 145.463 252.315Z" fill="url(#paint0_linear_5275_13039)"/>
<defs>
<linearGradient id="paint0_linear_5275_13039" x1="93.7187" y1="0" x2="93.7187" y2="290.343" gradientUnits="userSpaceOnUse">
<stop stop-color="#E1ECFF"/>
<stop offset="1" stop-color="#1A69EE"/>
</linearGradient>
</defs>
</svg>
