<svg width="214" height="231" viewBox="0 0 214 231" fill="none" xmlns="http://www.w3.org/2000/svg">
<path fill-rule="evenodd" clip-rule="evenodd" d="M36.4774 28.833H62.2333L95.0477 61.7818C95.8129 61.5304 96.5868 61.3043 97.3681 61.1041H201V58.1041H97.318L63.9699 24.6193H36.4774C35.5244 20.4987 31.8431 17.4219 27.4551 17.4219C22.3474 17.4219 18.1896 21.5939 18.1896 26.7262C18.1896 31.8584 22.3474 36.0304 27.4551 36.0304C31.8431 36.0304 35.5244 32.9504 36.4774 28.833ZM22.3858 26.7262C22.3858 23.9191 24.6598 21.6356 27.4551 21.6356C30.2504 21.6356 32.5244 23.9191 32.5244 26.7262C32.5244 29.5332 30.2504 31.8167 27.4551 31.8167C24.6598 31.8167 22.3858 29.5332 22.3858 26.7262ZM80.5657 69.1041H194V73.1041H78V72.4854L64.1643 58.5917H40.3338C39.3808 62.709 35.6995 65.7891 31.3115 65.7891C26.2038 65.7891 22.046 61.6171 22.046 56.4848C22.046 51.3525 26.2006 47.1805 31.3115 47.1805C35.6995 47.1805 39.3808 50.2605 40.3338 54.3779H65.901L80.5657 69.1041ZM31.3115 51.3975C28.5162 51.3975 26.2422 53.681 26.2422 56.488C26.2422 59.295 28.5162 61.5785 31.3115 61.5785C34.1068 61.5785 36.3808 59.295 36.3808 56.488C36.3808 53.681 34.1068 51.3975 31.3115 51.3975ZM44.9158 91.0538H18.2933C17.3402 95.1712 13.659 98.2513 9.2709 98.2513C4.16324 98.2513 0.00546265 94.0793 0.00546265 88.947C0.00546265 83.8147 4.16003 79.6427 9.2709 79.6427C13.659 79.6427 17.3402 82.7227 18.2933 86.8401H46.6525L64.4126 98.9418C64.3994 98.9959 64.3864 99.05 64.3733 99.1041H177V103.104H63.5439C63.5295 103.187 63.5152 103.269 63.5011 103.351L63.1274 103.104H63V103.02L44.9158 91.0538ZM9.2709 83.8564C6.4756 83.8564 4.20161 86.14 4.20161 88.947C4.20161 91.754 6.4756 94.0375 9.2709 94.0375C12.0662 94.0375 14.3402 91.754 14.3402 88.947C14.3402 86.14 12.0662 83.8564 9.2709 83.8564ZM54.1016 63.5107C59.2092 63.5107 63.367 67.6827 63.367 72.815C63.367 74.5236 62.9033 76.123 62.1005 77.5008L69.4623 85.1041H184V89.1041H68V88.3135C67.866 88.6172 67.7342 88.9226 67.6048 89.2299L59.2156 80.568C57.7476 81.5476 55.9886 82.1193 54.0984 82.1193C48.9907 82.1193 44.8329 77.9473 44.8329 72.815C44.8329 67.6827 48.9875 63.5107 54.0984 63.5107H54.1016ZM54.1016 77.9023C56.8969 77.9023 59.1709 75.6188 59.1709 72.8118C59.1709 70.0047 56.8969 67.7212 54.1016 67.7212C51.3063 67.7212 49.0323 70.0047 49.0323 72.8118C49.0323 75.6188 51.3063 77.9023 54.1016 77.9023Z" fill="#04394D"/>
<path fill-rule="evenodd" clip-rule="evenodd" d="M9.26599 132.141C13.654 132.141 17.3353 135.221 18.2884 139.339H44.9109L63 127.369V127.104H63.4017L63.4962 127.041L63.507 127.104H168V132.104H63.4496L46.6476 143.552H18.2884C17.3353 147.67 13.654 150.75 9.26599 150.75C4.15831 150.75 0.000534058 146.578 0.000534058 141.445C0.000534058 136.313 4.15512 132.141 9.26599 132.141ZM9.26599 146.533C12.0613 146.533 14.3353 144.249 14.3353 141.442C14.3353 138.635 12.0613 136.352 9.26599 136.352C6.47067 136.352 4.1967 138.635 4.1967 141.442C4.1967 144.249 6.47067 146.533 9.26599 146.533ZM63.3666 157.581C63.3666 155.873 62.9028 154.273 62.1001 152.895H62.1033L69.5105 145.245C69.4866 145.198 69.463 145.151 69.4398 145.104H166V141.104H68.0103C67.9642 140.983 67.9168 140.864 67.8681 140.749L59.2184 149.828C57.7504 148.849 55.9913 148.277 54.1012 148.277C48.9903 148.277 44.8357 152.449 44.8357 157.581C44.8357 162.713 48.9903 166.885 54.1012 166.885C59.212 166.885 63.3666 162.71 63.3666 157.581ZM49.0319 157.581C49.0319 154.774 51.3059 152.491 54.1012 152.491C56.8965 152.491 59.1704 154.774 59.1704 157.581C59.1704 160.388 56.8965 162.672 54.1012 162.672C51.3059 162.672 49.0319 160.388 49.0319 157.581ZM65.8922 176.012L80.738 161.104H163V158.104H78.6579C78.515 157.957 78.3727 157.809 78.2312 157.66L64.1523 171.798H40.3219C39.3688 167.68 35.6875 164.6 31.2995 164.6C26.1886 164.6 22.0341 168.772 22.0341 173.905C22.0341 179.037 26.1918 183.209 31.2995 183.209C35.6875 183.209 39.3688 180.129 40.3219 176.012H65.8922ZM26.2302 173.908C26.2302 171.101 28.5042 168.817 31.2995 168.817C34.0948 168.817 36.3688 171.101 36.3688 173.908C36.3688 176.715 34.0948 178.998 31.2995 178.998C28.5042 178.998 26.2302 176.715 26.2302 173.908ZM36.4767 205.772H63.9692L97.4972 172.104H162V168.104H95V168.654L62.2326 201.558H36.4767C35.5236 197.441 31.8424 194.361 27.4543 194.361C22.3435 194.361 18.1889 198.533 18.1889 203.665C18.1889 208.797 22.3467 212.969 27.4543 212.969C31.8424 212.969 35.5236 209.889 36.4767 205.772ZM22.3851 203.665C22.3851 200.858 24.659 198.575 27.4543 198.575C30.2496 198.575 32.5236 200.858 32.5236 203.665C32.5236 206.472 30.2496 208.756 27.4543 208.756C24.659 208.756 22.3851 206.472 22.3851 203.665Z" fill="#04394D"/>
<path d="M87.7721 219.22H62.0163C61.0632 215.102 57.382 212.022 52.9939 212.022C47.8863 212.022 43.7285 216.194 43.7285 221.327C43.7285 226.459 47.8863 230.631 52.9939 230.631C57.382 230.631 61.0632 227.554 62.0163 223.433H89.5088L122.5 189.104C120.894 188.808 121.544 186.611 120 186.104L87.7721 219.22ZM52.9939 226.417C50.1986 226.417 47.9247 224.134 47.9247 221.327C47.9247 218.52 50.1986 216.236 52.9939 216.236C55.7892 216.236 58.0632 218.52 58.0632 221.327C58.0632 224.134 55.7892 226.417 52.9939 226.417Z" fill="url(#paint0_linear_5275_12955)"/>
<path d="M163 186.104H120V190.104H163V186.104Z" fill="#04394D"/>
<path d="M96.3333 11.4111H70.5775C69.6244 15.5285 65.9432 18.6086 61.5551 18.6086C56.4474 18.6086 52.2897 14.4366 52.2897 9.30428C52.2897 4.17199 56.4474 0 61.5551 0C65.9432 0 69.6244 3.0768 70.5775 7.19741H98.07L133.878 43.1523C132.273 43.4478 130.693 43.8525 129.148 44.3599L96.3333 11.4111ZM61.5551 4.21374C58.7598 4.21374 56.4858 6.49726 56.4858 9.30428C56.4858 12.1113 58.7598 14.3948 61.5551 14.3948C64.3504 14.3948 66.6244 12.1113 66.6244 9.30428C66.6244 6.49726 64.3504 4.21374 61.5551 4.21374Z" fill="url(#paint1_linear_5275_12955)"/>
<path d="M214 42.1035H129V45.1035H214V42.1035Z" fill="#04394D"/>
<defs>
<linearGradient id="paint0_linear_5275_12955" x1="83.1142" y1="230.631" x2="83.1142" y2="186.104" gradientUnits="userSpaceOnUse">
<stop stop-color="#B22234"/>
<stop offset="1" stop-color="#233340"/>
</linearGradient>
<linearGradient id="paint1_linear_5275_12955" x1="107.85" y1="0" x2="107.85" y2="47.0917" gradientUnits="userSpaceOnUse">
<stop stop-color="#B22234"/>
<stop offset="1" stop-color="#233340"/>
</linearGradient>
</defs>
</svg>
