<svg width="214" height="231" viewBox="0 0 214 231" fill="none" xmlns="http://www.w3.org/2000/svg">
<path fill-rule="evenodd" clip-rule="evenodd" d="M177.164 28.833H151.408L118.594 61.7818C117.829 61.5306 117.055 61.3045 116.274 61.1044H12V58.1044H116.323L149.671 24.6193H177.164C178.117 20.4987 181.798 17.4219 186.186 17.4219C191.294 17.4219 195.452 21.5939 195.452 26.7262C195.452 31.8584 191.294 36.0304 186.186 36.0304C181.798 36.0304 178.117 32.9504 177.164 28.833ZM191.255 26.7262C191.255 23.9191 188.982 21.6356 186.186 21.6356C183.391 21.6356 181.117 23.9191 181.117 26.7262C181.117 29.5332 183.391 31.8167 186.186 31.8167C188.982 31.8167 191.255 29.5332 191.255 26.7262ZM135.4 72.7298L135.401 72.7282L135.403 72.7298H135.4ZM135 72.3109V73.1044H19V69.1044H133.077L147.742 54.3782H173.309C174.262 50.2608 177.943 47.1808 182.331 47.1808C187.442 47.1808 191.597 51.3528 191.597 56.4851C191.597 61.6174 187.439 65.7894 182.331 65.7894C177.943 65.7894 174.262 62.7093 173.309 58.592H149.478L135.401 72.7282C135.268 72.588 135.134 72.449 135 72.3109ZM182.331 51.3978C185.127 51.3978 187.401 53.6813 187.401 56.4883C187.401 59.2953 185.127 61.5788 182.331 61.5788C179.536 61.5788 177.262 59.2953 177.262 56.4883C177.262 53.6813 179.536 51.3978 182.331 51.3978ZM168.727 91.0542H195.349C196.303 95.1715 199.984 98.2516 204.372 98.2516C209.48 98.2516 213.637 94.0796 213.637 88.9473C213.637 83.815 209.483 79.643 204.372 79.643C199.984 79.643 196.303 82.723 195.349 86.8404H166.99L149.23 98.9421C149.243 98.9962 149.256 99.0503 149.269 99.1044H35V103.104H150.099C150.113 103.187 150.128 103.269 150.142 103.352L150.515 103.104H151V102.784L168.727 91.0542ZM204.372 83.8568C207.167 83.8568 209.441 86.1403 209.441 88.9473C209.441 91.7543 207.167 94.0378 204.372 94.0378C201.577 94.0378 199.303 91.7543 199.303 88.9473C199.303 86.1403 201.577 83.8568 204.372 83.8568ZM159.541 63.511C154.434 63.511 150.276 67.683 150.276 72.8153C150.276 74.5239 150.739 76.1233 151.542 77.5011L144.18 85.1044H29V89.1044H145.985C146.003 89.1463 146.02 89.1883 146.038 89.2302L154.427 80.5683C155.895 81.5479 157.654 82.1196 159.544 82.1196C164.652 82.1196 168.81 77.9476 168.81 72.8153C168.81 67.683 164.655 63.511 159.544 63.511H159.541ZM159.541 77.9026C156.746 77.9026 154.472 75.6191 154.472 72.8121C154.472 70.005 156.746 67.7215 159.541 67.7215C162.336 67.7215 164.61 70.005 164.61 72.8121C164.61 75.6191 162.336 77.9026 159.541 77.9026Z" fill="url(#paint0_linear_5275_12986)"/>
<path fill-rule="evenodd" clip-rule="evenodd" d="M204.375 132.141C199.987 132.141 196.305 135.221 195.352 139.339H168.73L151 127.607V127.104H150.239L150.145 127.041L150.134 127.104H45V131.104H149.316C149.288 131.219 149.261 131.335 149.233 131.451L166.993 143.552H195.352C196.305 147.67 199.987 150.75 204.375 150.75C209.482 150.75 213.64 146.578 213.64 141.445C213.64 136.313 209.486 132.141 204.375 132.141ZM204.375 146.533C201.579 146.533 199.305 144.249 199.305 141.442C199.305 138.635 201.579 136.352 204.375 136.352C207.17 136.352 209.444 138.635 209.444 141.442C209.444 144.249 207.17 146.533 204.375 146.533ZM150.274 157.581C150.274 155.872 150.738 154.273 151.541 152.895H151.537L144.13 145.245L144.203 145.104H47V141.104H146V141.245L146.033 141.166L154.422 149.828C155.89 148.849 157.649 148.277 159.54 148.277C164.65 148.277 168.805 152.449 168.805 157.581C168.805 162.713 164.65 166.885 159.54 166.885C154.429 166.885 150.274 162.71 150.274 157.581ZM164.609 157.581C164.609 154.774 162.335 152.491 159.54 152.491C156.744 152.491 154.47 154.774 154.47 157.581C154.47 160.388 156.744 162.672 159.54 162.672C162.335 162.672 164.609 160.388 164.609 157.581ZM147.748 176.012L132.903 161.104H50V158.104H134.983C135.126 157.957 135.268 157.809 135.409 157.66L135.851 158.104H136V158.253L149.488 171.798H173.319C174.272 167.68 177.953 164.6 182.341 164.6C187.452 164.6 191.607 168.772 191.607 173.905C191.607 179.037 187.449 183.209 182.341 183.209C177.953 183.209 174.272 180.129 173.319 176.012H147.748ZM187.41 173.908C187.41 171.101 185.136 168.817 182.341 168.817C179.546 168.817 177.272 171.101 177.272 173.908C177.272 176.715 179.546 178.998 182.341 178.998C185.136 178.998 187.41 176.715 187.41 173.908ZM177.168 205.772H149.675L116.147 172.104H50V168.104H118V168.104C118 168.104 118 168.104 118 168.104L151.412 201.558H177.168C178.121 197.441 181.802 194.361 186.19 194.361C191.301 194.361 195.456 198.533 195.456 203.665C195.456 208.797 191.298 212.969 186.19 212.969C181.802 212.969 178.121 209.889 177.168 205.772ZM191.259 203.665C191.259 200.858 188.985 198.575 186.19 198.575C183.395 198.575 181.121 200.858 181.121 203.665C181.121 206.472 183.395 208.756 186.19 208.756C188.985 208.756 191.259 206.472 191.259 203.665Z" fill="url(#paint1_linear_5275_12986)"/>
<path d="M50 186.104H93V190.104H50V186.104Z" fill="#04394D"/>
<path d="M125.863 219.22H151.619C152.572 215.102 156.253 212.022 160.641 212.022C165.749 212.022 169.907 216.194 169.907 221.327C169.907 226.459 165.749 230.631 160.641 230.631C156.253 230.631 152.572 227.554 151.619 223.433H124.126L89.6094 187.964C91.2149 187.668 91.5039 186.778 93.0486 186.271L125.863 219.22ZM160.641 226.417C163.437 226.417 165.711 224.134 165.711 221.327C165.711 218.52 163.437 216.236 160.641 216.236C157.846 216.236 155.572 218.52 155.572 221.327C155.572 224.134 157.846 226.417 160.641 226.417Z" fill="url(#paint2_linear_5275_12986)"/>
<path fill-rule="evenodd" clip-rule="evenodd" d="M143.053 11.4111H117.297L84.7047 45.432C84.4143 45.3366 84.164 45.2245 83.9381 45.1035H0V42.1035H82.6019L115.56 7.19741H143.053C144.006 3.0768 147.687 0 152.075 0C157.183 0 161.341 4.17199 161.341 9.30428C161.341 14.4366 157.183 18.6086 152.075 18.6086C147.687 18.6086 144.006 15.5285 143.053 11.4111ZM157.144 9.30428C157.144 6.49726 154.87 4.21374 152.075 4.21374C149.28 4.21374 147.006 6.49726 147.006 9.30428C147.006 12.1113 149.28 14.3948 152.075 14.3948C154.87 14.3948 157.144 12.1113 157.144 9.30428Z" fill="url(#paint3_linear_5275_12986)"/>
<defs>
<linearGradient id="paint0_linear_5275_12986" x1="210.635" y1="34.6811" x2="163.395" y2="143.179" gradientUnits="userSpaceOnUse">
<stop offset="0.0781335" stop-color="#BA2228"/>
<stop offset="1" stop-color="#04394D"/>
</linearGradient>
<linearGradient id="paint1_linear_5275_12986" x1="211.195" y1="144.3" x2="157.531" y2="244.672" gradientUnits="userSpaceOnUse">
<stop offset="0.0781335" stop-color="#BA2228"/>
<stop offset="1" stop-color="#04394D"/>
</linearGradient>
<linearGradient id="paint2_linear_5275_12986" x1="168.389" y1="221.721" x2="143.656" y2="166.088" gradientUnits="userSpaceOnUse">
<stop offset="0.0781335" stop-color="#BA2228"/>
<stop offset="1" stop-color="#04394D"/>
</linearGradient>
<linearGradient id="paint3_linear_5275_12986" x1="159.016" y1="9.80404" x2="137.764" y2="76.3303" gradientUnits="userSpaceOnUse">
<stop offset="0.0781335" stop-color="#BA2228"/>
<stop offset="1" stop-color="#04394D"/>
</linearGradient>
</defs>
</svg>
