<svg width="72" height="54" viewBox="0 0 72 54" fill="none" xmlns="http://www.w3.org/2000/svg">
<path d="M44.262 40.026L35.997 37.962L35.385 35.511C37.575 33.273 39.087 30.273 39.591 27.177C40.878 26.715 41.853 25.56 42.033 24.135L42.588 19.701C42.72 18.651 42.396 17.595 41.703 16.8C41.361 16.407 40.944 16.095 40.482 15.879L40.668 12.129L41.397 11.397C42.744 9.966 43.863 7.521 41.559 4.005C39.819 1.347 36.885 0 32.832 0C31.269 0 27.684 3.57628e-07 24.306 2.226C14.568 2.469 13.305 7.284 13.305 11.478C13.305 12.432 13.515 14.43 13.674 15.807C13.158 16.023 12.693 16.35 12.315 16.779C11.607 17.577 11.28 18.642 11.412 19.701L11.967 24.135C12.156 25.659 13.257 26.874 14.676 27.261C15.177 30.228 16.611 33.123 18.666 35.31L18.003 37.962L9.738 40.026C4.002 41.457 0 46.587 0 52.5C0 52.899 0.156 53.283 0.438 53.562C0.72 53.841 1.104 54 1.5 54L52.5 53.994C53.328 53.994 54 53.322 54 52.494C54 46.587 49.998 41.457 44.262 40.026ZM3.114 50.994C3.705 47.118 6.561 43.911 10.467 42.936L19.605 40.653C20.142 40.518 20.565 40.098 20.697 39.561L21.783 35.211C21.918 34.683 21.75 34.125 21.354 33.753C19.185 31.719 17.748 28.734 17.511 25.773C17.448 24.993 16.797 24.393 16.014 24.393H15.654C15.294 24.393 14.988 24.123 14.943 23.766L14.388 19.332C14.352 19.053 14.481 18.858 14.562 18.768C14.643 18.678 14.82 18.525 15.33 18.525C15.762 18.525 16.17 18.342 16.455 18.018C16.74 17.697 16.872 17.265 16.818 16.839C16.677 15.711 16.305 12.546 16.305 11.484C16.305 8.73 16.305 5.307 24.798 5.223C25.104 5.22 25.407 5.124 25.656 4.944C28.044 3.237 30.624 3.006 32.835 3.006C35.811 3.006 37.902 3.897 39.051 5.655C40.365 7.662 39.87 8.649 39.243 9.315L38.136 10.425C37.872 10.689 37.716 11.04 37.698 11.412L37.428 16.962C37.41 17.37 37.557 17.766 37.836 18.063C38.112 18.36 38.502 18.531 38.91 18.534C39.192 18.537 39.366 18.69 39.444 18.78C39.522 18.87 39.648 19.059 39.615 19.335L39.06 23.769C39.015 24.126 38.709 24.396 38.241 24.396C37.458 24.396 36.807 24.996 36.744 25.776C36.501 28.83 34.998 31.872 32.718 33.915C32.304 34.284 32.13 34.854 32.265 35.394L33.306 39.561C33.441 40.098 33.861 40.521 34.398 40.653L43.536 42.936C47.436 43.911 50.292 47.121 50.886 51L3.114 50.994ZM62.265 40.023L54 37.959L53.664 36.633C59.322 35.619 62.259 33.912 62.391 33.834C62.814 33.585 63.078 33.135 63.114 32.646C63.15 32.157 62.931 31.671 62.55 31.362C62.511 31.332 58.695 28.116 58.695 17.025C58.695 7.2 56.325 2.22 51.651 2.22H51.15C49.542 0.705 48.228 0.0539998 45.321 0.0119998H45.3C44.742 0.0119998 44.241 0.336 43.983 0.831C43.722 1.332 43.773 1.956 44.103 2.415C44.439 2.889 44.997 3.102 45.525 3.015C47.67 3.075 48.21 3.51 49.479 4.779C49.761 5.058 50.142 5.217 50.541 5.217H51.651C54.222 5.217 55.695 9.522 55.695 17.022C55.695 25.392 57.693 29.856 59.184 32.019C57.666 32.619 55.125 33.429 51.606 33.924C51.186 33.981 50.808 34.218 50.571 34.569C50.334 34.923 50.256 35.358 50.361 35.772L51.306 39.561C51.441 40.098 51.861 40.521 52.398 40.653L61.536 42.936C65.436 43.911 68.292 47.121 68.886 51H58.5V54L70.5 53.994C71.328 53.994 72 53.322 72 52.494C72 46.587 67.998 41.457 62.265 40.023Z" fill="#202020" fill-opacity="0.12"/>
</svg>
